<svg xmlns="http://www.w3.org/2000/svg" width="1024" height="1024" viewBox="0 0 1024 1024">
  <rect width="1024" height="1024" fill="#1e1e2e"/>
  <circle cx="512" cy="512" r="410" fill="#181825" stroke="#313244" stroke-width="28"/>
  <g transform="translate(168 130) scale(15.3)">
    <path
      d="M22 10C32.5 11 38.5 18 38 39H15C15 30 25 32.5 23 18"
      fill="#89b4fa"
    />
    <path
      d="M24 18C24.38 20.91 18.45 25.37 16 27C13 29 13.18 31.34 11 31C9.958 30.06 12.41 27.96 11 28C10 28 11.19 29.23 10 30C9 30 5.997 31 6 26C6 24 12 14 12 14C12 14 13.89 12.1 14 10.5C13.27 9.506 13.5 8.5 13.5 7.5C14.5 6.5 16.5 10 16.5 10L18.5 10C18.5 10 19.28 8.008 21 7C22 7 22 10 22 10"
      fill="#89b4fa"
    />
    <circle cx="9.5" cy="25.5" r="1" fill="#1e1e2e"/>
    <ellipse
      cx="15"
      cy="15.5"
      rx="0.5"
      ry="1.5"
      fill="#1e1e2e"
      transform="matrix(0.866 0.5 -0.5 0.866 9.693 -5.173)"
    />
  </g>
</svg>
